<svg xmlns="http://www.w3.org/2000/svg" viewBox="0 0 379.54 287.1"><defs><style>.cls-1{fill:#fff5ea;}</style></defs><g id="Layer_2" data-name="Layer 2"><g id="Layer_1-2" data-name="Layer 1"><path class="cls-1" d="M267.44,97.44a33.35,33.35,0,0,0-.64-7.07l-.37-1.73c-.12-.57-.29-1.13-.42-1.7l-.22-.85-.23-.84c-.17-.55-.3-1.12-.47-1.67s-.33-1.11-.48-1.67l-.49-1.66-.24-.84-.26-.82c-.18-.55-.34-1.11-.52-1.65-.72-2.2-1.52-4.36-2.38-6.52l-.67-1.61-.71-1.59c-.23-.54-.49-1.06-.75-1.58s-.5-1.06-.78-1.57-.54-1-.83-1.56L256.11,61c-.58-1-1.14-1.9-1.73-2.84a115.94,115.94,0,0,0-16.55-20.79c-3.14-3.17-6.42-6.21-9.75-9.2a105.57,105.57,0,0,0-10.54-8.38,74.13,74.13,0,0,0-11.76-6.71c-2.1-.92-4.13-1.69-6.19-2.49L196.5,9.42l-3.13-1.1a85.3,85.3,0,0,0-12.88-3.39c-2.2-.35-4.42-.64-6.63-.8-1.11-.09-2.21-.14-3.31-.21s-2.21-.11-3.3-.14l-6.55-.22c-1.1,0-2.15-.08-3.21-.15s-2.12-.16-3.18-.26c-2.11-.21-4.23-.48-6.37-.77-1.07-.15-2.15-.29-3.25-.42s-2.23-.25-3.43-.31c-.6,0-1.23,0-1.88,0a11.08,11.08,0,0,0-2.2.3l-.31.08c-.1,0-.22.07-.33.1s-.43.15-.68.27-.48.24-.71.38-.5.35-.73.54a8.9,8.9,0,0,0-.67.7,7.6,7.6,0,0,0-.54.81,5.93,5.93,0,0,0-.59,1.66l-.08.39,0,.36c0,.23,0,.49,0,.7a9,9,0,0,0,.09,1.21l.08.56.11.51.17.8s0,.05,0,.08c-.64-.79-1.29-1.57-2-2.31a45.93,45.93,0,0,0-5.25-5,26.85,26.85,0,0,0-3-2.15A14,14,0,0,0,121,.73,8.39,8.39,0,0,0,118.9.08l-.31,0-.34,0a4.12,4.12,0,0,0-.77,0,2.1,2.1,0,0,0-.45.09l-.23.06-.27.11a3.39,3.39,0,0,0-.52.29,4.18,4.18,0,0,0-.49.43c-.44.46-.85.93-1.25,1.41a17.44,17.44,0,0,0-2.08,3.24,10.34,10.34,0,0,0-.74,2A6.86,6.86,0,0,0,111.2,10a4.82,4.82,0,0,0,1,2.59l.23.28c.07.08.16.16.24.24a3.42,3.42,0,0,0,.51.43,5.24,5.24,0,0,0,.53.34c.19.11.34.17.51.25a14.43,14.43,0,0,0,3.77,1c1.2.16,2.37.27,3.53.4a32.27,32.27,0,0,1,3.36.54,11,11,0,0,1,1.53.44,2.94,2.94,0,0,1,1,.61,5,5,0,0,0-.26.7l-1,.24a13,13,0,0,0-3.63,1.29,7.56,7.56,0,0,0-1.82,1.37,5.29,5.29,0,0,0-1.29,2.23,5.72,5.72,0,0,0-.06,2.39,10.19,10.19,0,0,0,.58,1.91,32.42,32.42,0,0,0,1.54,3.18c1.09,2,2.17,3.92,3.1,5.87.47,1,.91,1.93,1.31,2.87s.76,1.85,1,2.71a12.32,12.32,0,0,1,.57,2.32l0,.25.05.47c0,.31.06.62.11.91l.13.88.16.87a51.5,51.5,0,0,0,1.75,6.57,107.7,107.7,0,0,0,5.15,12.32c1.94,4,3.91,7.93,6.11,11.77,1.1,1.92,2.24,3.82,3.47,5.67l.46.69.47.69c.32.46.62.92,1,1.37.65.9,1.3,1.81,2,2.69s1.4,1.75,2.11,2.62l1.12,1.26c.19.21.37.42.57.62l.59.61a44.11,44.11,0,0,0,5,4.59c.45.34.92.71,1.36,1l1.35,1c.9.64,1.8,1.26,2.71,1.88,1.83,1.23,3.65,2.46,5.5,3.65,3.7,2.38,7.43,4.71,11.23,6.92q2.85,1.67,5.75,3.26c1.93,1.06,3.89,2.09,5.85,3.09a153.74,153.74,0,0,0,24.74,10,79.78,79.78,0,0,0,13.42,2.88c1.51.18,3,.3,4.6.35h.1c13.5,1.27,27.57-7.26,27.52-9.06s-1-2.37,2.1-2.5S269.86,114.65,267.44,97.44ZM139.81,7.83c.42,0,.88-.08,1.37-.09,2,0,4.14.07,6.32.12s4.4.11,6.63.06c1.11,0,2.22-.06,3.33-.12s2.24-.13,3.31-.21c2.17-.16,4.32-.29,6.47-.37A57.83,57.83,0,0,1,180,8a61.06,61.06,0,0,1,12.15,3.72L195,13l2.9,1.38c1.91,1,3.87,1.93,5.64,3a68,68,0,0,1,10.08,7.43,111.9,111.9,0,0,1,9,8.86c1.42,1.57,2.78,3.19,4.1,4.85s2.59,3.35,3.83,5.08c4.95,6.9,9.76,13.88,15,20.68l2,2.55.9,1.19c.31.4.59.81.88,1.22a57.47,57.47,0,0,1,3.26,5.11,50.56,50.56,0,0,1,2.65,5.5,37.25,37.25,0,0,1,1.85,5.8,45.54,45.54,0,0,1,.8,6l0,.56-.32-.46c-1.07-1.52-2.18-3-3.33-4.48-2.23-2.88-4.4-5.83-6.58-8.8s-4.44-5.92-6.87-8.71c-.6-.7-1.22-1.39-1.84-2.07s-1.27-1.34-1.91-2-1.3-1.3-2-1.94-1.31-1.3-2-1.92c-5.33-5.06-10.92-9.77-16.63-14.3-2.84-2.27-5.71-4.52-8.57-6.77l-4.29-3.36c-1.45-1.12-2.88-2.25-4.37-3.32-2.95-2.18-6-4.25-9.08-6.25s-6.24-3.92-9.46-5.74c-1.61-.92-3.26-1.77-4.92-2.59a55.38,55.38,0,0,0-5.14-2.18,47.93,47.93,0,0,0-5.38-1.56,54.58,54.58,0,0,0-5.51-.92c-1.84-.23-3.68-.37-5.51-.48l-2.75-.15L148.72,14l-5.45-.26-3-.18c-.27-.32-.43-.5-.71-.81h0c0-.37,0-.75,0-1.1s-.06-.72-.11-1.06l-.08-.51c0-.17-.07-.33-.11-.5l-.18-.79L139,8.54l0-.25A1.45,1.45,0,0,1,139,8,7.37,7.37,0,0,1,139.81,7.83Zm-1.18.26ZM132.32,14v0l0,0,0,.07-.06.09h-.05l.05-.07C132.47,13.85,132.26,14.08,132.32,14ZM118.13,4s0,0,.1,0h.09l-.06,0h-.13Zm9,10.46c-.62-.19-1.22-.33-1.81-.45-1.18-.24-2.33-.43-3.46-.65a28.24,28.24,0,0,1-3.29-.82,10.16,10.16,0,0,1-2.77-1.29,2.51,2.51,0,0,1-.24-.19c0-.06-.13-.11-.16-.17a1.77,1.77,0,0,1-.12-.17l0-.08,0-.07a1.43,1.43,0,0,1,0-.67A6.68,6.68,0,0,1,116,7.58,23.21,23.21,0,0,1,117.61,5c.26-.36.53-.72.81-1.07h0a6.19,6.19,0,0,1,1.27.21,14.67,14.67,0,0,1,1.45.5A19,19,0,0,1,124,6.13a20.55,20.55,0,0,1,4.92,4.38,17.23,17.23,0,0,1,1.82,2.75c.17.32.33.66.48,1h-.13a4.9,4.9,0,0,0-2.31,1l-.26-.19-.5-.27A8.07,8.07,0,0,0,127.09,14.43ZM242.16,123.52a29.54,29.54,0,0,1-5.57.48,54.26,54.26,0,0,1-5.9-.39,90.12,90.12,0,0,1-12.07-2.41c-4-1-8.06-2.35-12.05-3.77q-3-1.07-6-2.24c-2-.76-4-1.56-5.94-2.38-7.89-3.27-15.72-6.86-23.3-10.9-1.9-1-3.78-2.06-5.62-3.15-.93-.54-1.84-1.1-2.76-1.66l-1.35-.84c-.46-.29-.86-.58-1.29-.86a40.61,40.61,0,0,1-4.82-3.89l-.58-.53-.55-.56c-.37-.38-.74-.74-1.1-1.12-.7-.78-1.43-1.55-2.09-2.36a55.55,55.55,0,0,1-3.82-5.07c-1.2-1.75-2.28-3.59-3.32-5.45s-2-3.77-2.87-5.71-1.65-3.94-2.35-6a119.08,119.08,0,0,1-3.41-12.28c-.47-2-.92-4.1-1.27-6.09l-.12-.74-.11-.73c0-.25-.06-.48-.09-.7l0-.35-.07-.56a12.35,12.35,0,0,0-1.31-3.9,28.57,28.57,0,0,0-4.19-5.66,44.54,44.54,0,0,1-4.12-5,10.85,10.85,0,0,1-1.38-2.62,4.26,4.26,0,0,1-.23-1.24,1.42,1.42,0,0,1,.22-.83,1.33,1.33,0,0,1,.55-.41,4.52,4.52,0,0,1,1-.33,20.39,20.39,0,0,1,2.64-.38l.61-.07a17.27,17.27,0,0,0,.61,1.63,27.63,27.63,0,0,0,1.54,3c.28.45.56.92.85,1.36l.73,1.13c.22.34.43.7.64,1.07s.43.74.64,1.15c.85,1.56,1.68,3.25,2.45,5a54.36,54.36,0,0,1,2,5.5c1.17,3.77,2.15,7.7,3.41,11.66a42.24,42.24,0,0,0,5.36,11.4,52.26,52.26,0,0,0,8.57,9.5c.39.35.81.68,1.22,1s.82.69,1.25,1c.84.63,1.73,1.29,2.53,1.84s1.64,1.13,2.46,1.68l2.49,1.64c1.67,1.08,3.35,2.13,5,3.17s3.38,2.06,5.08,3.08l20.4,12c3.38,2,6.77,4,10.12,6.09s6.67,4.22,10.09,6.27c1.7,1,3.43,2,5.21,3a55.34,55.34,0,0,0,5.54,2.64c1,.39,2,.76,3,1.07a15.7,15.7,0,0,0,1.64.43l.74.16.68.14c1.83.39,3.68.85,5.55,1.32s3.84,1,5.81,1.49Zm9.28-4.77-.16.13-1.05-.27c-1.81-.48-3.65-1.06-5.52-1.6S241,115.9,239,115.38s-3.87-1-5.88-1.4l-.76-.14-.7-.14-.59-.13a4.84,4.84,0,0,1-.61-.14c-.83-.2-1.69-.48-2.56-.75-1.74-.57-3.51-1.25-5.28-1.94-.88-.36-1.76-.72-2.65-1.1s-1.77-.76-2.65-1.15c-3.53-1.57-7-3.29-10.41-5.2s-6.68-4-9.91-6.2-6.39-4.47-9.49-6.84-6.14-4.82-9.14-7.31-6-5-8.9-7.55l-4.39-3.79c-.77-.64-1.38-1.23-2.06-1.84-.34-.29-.65-.62-1-.92s-.66-.61-1-.94c-1.25-1.28-2.46-2.58-3.59-4-.3-.33-.57-.69-.85-1s-.56-.68-.82-1l-1.59-2.14c-.27-.36-.54-.71-.8-1.08l-.8-1.09-1.59-2.2c-.55-.73-1.07-1.49-1.62-2.24s-1.05-1.52-1.57-2.31c-1-1.56-2-3.18-2.94-4.87s-1.72-3.44-2.47-5.24-1.39-3.64-2-5.55a58.86,58.86,0,0,0-2-5.83c-.2-.49-.46-1-.7-1.47-.11-.25-.27-.49-.4-.74s-.27-.49-.44-.73l-.48-.72-.12-.18-.11-.14-.19-.27c-.27-.36-.51-.73-.76-1.09A23.86,23.86,0,0,1,134,21.78c-.08-.14-.15-.29-.22-.43l.36-.17c.26-.13.53-.27.79-.43.77.34,1.56.74,2.35,1.18l.23-.33,2.66,2q4,3,8.06,5.94l8.18,5.8,2,1.48,2,1.52c1.33,1,2.63,2.05,3.92,3.11l7.76,6.35L176,51l3.85,3.21c5.12,4.3,10.21,8.63,15.25,13,2.52,2.18,5,4.41,7.53,6.62l3.74,3.33,1.87,1.67.93.83.82.79c1.1,1.09,2.19,2.32,3.26,3.56.53.63,1.06,1.27,1.58,1.91l1.56,2c2.08,2.62,4.12,5.32,6.31,7.9a87.08,87.08,0,0,0,15,14c1.42,1,2.85,2,4.36,3l1.13.7,1.17.66c.76.45,1.58.85,2.38,1.26a36.79,36.79,0,0,0,5.12,2.08l.94.27C252.3,118.09,251.87,118.43,251.44,118.75Zm5.35-5.81A320.6,320.6,0,0,0,224.4,82.8C213,73.4,201.08,64.54,189.21,55.69S165.41,38,153.91,28.62q-4.31-3.51-8.53-7.12c-.6-.51-3.85-2.73-3.49-3.51s4.33-.85,5.17-.93a51.29,51.29,0,0,1,21.87,2.72,49.48,49.48,0,0,1,6.71,2.95C186,28.26,194.07,37.17,202.35,45.5c16.22,16.32,34,31,49.66,47.93,2.4,2.59,4.79,5.31,6.1,8.56l.2.51C259.57,106,259.34,110.25,256.79,112.94Z"/><path class="cls-1" d="M0,227.05H2.94c4.06,0,4.47-1.22,4.47-12.89V183c0-2.1-1.14-3-2.34-3s-2.43,1.13-2.43,3v3.14H1.83V183c0-3.51,2.74-5.28,5.68-5.28,2.64,0,5.17,1.44,5.17,4.46v3.66c0,1.32-.1,8-.2,8.82h.61a32.55,32.55,0,0,1,1.42-5.47c2.43-7.21,8.42-11.88,15.42-11.88,9.13,0,14.2,5.08,14.2,12.79v24c0,11.67.41,12.89,4.47,12.89h2.23v.81H30.13v-.81h2.94c4.06,0,4.47-1.22,4.47-12.89V192.45c0-8.32-2.44-12.78-8.32-12.78-8.62,0-15.22,7.81-15.22,19.78v14.71c0,11.67.51,12.89,4.57,12.89h3v.81H0Z"/><path class="cls-1" d="M118.6,185.76a16.19,16.19,0,0,1-9.08-4.52,15.18,15.18,0,0,1-4.21-8.12,18.52,18.52,0,0,1,1.06-9.73,23.44,23.44,0,0,1,6.75-9.44,38.19,38.19,0,0,1,12.83-7.1q8-2.79,19.43-2.79,10.14,0,17.15,4.31a30.88,30.88,0,0,1,10.95,11.41,43.41,43.41,0,0,1,5,16.14,65.59,65.59,0,0,1-.51,18.51A72.53,72.53,0,0,1,172.27,213a64,64,0,0,1-10.56,16.13,50.35,50.35,0,0,1-15,11.41,42.34,42.34,0,0,1-19.18,4.31,27.61,27.61,0,0,1-6.64-.76,26.06,26.06,0,0,1-5.73-2.13,29.46,29.46,0,0,1-4.92-3.2,40.94,40.94,0,0,1-4.21-3.85A38.73,38.73,0,0,1,96.63,239a40.51,40.51,0,0,1-11.51,1.52A37.22,37.22,0,0,1,70.66,238a26.35,26.35,0,0,1-9.74-6.74,24.9,24.9,0,0,1-5.27-9.54,28.21,28.21,0,0,1-1-10.9,33.67,33.67,0,0,1,3-10.91,32.21,32.21,0,0,1,17.2-16.28,35.62,35.62,0,0,1,13.8-2.54A18.42,18.42,0,0,1,97.44,183a11.95,11.95,0,0,1,6.7,11.51,16.39,16.39,0,0,1-2.13,7.26,23.06,23.06,0,0,1-5.78,6.69,27.44,27.44,0,0,1-9.49,4.82,13.78,13.78,0,0,1,5,2.73,29.38,29.38,0,0,1,4.31,4.55c1.36,1.75,2.74,3.62,4.16,5.61a68,68,0,0,0,4.57,5.71,40.69,40.69,0,0,0,8.32-11.22,138,138,0,0,0,6.34-14.28q2.9-7.6,5.73-15.57a127.36,127.36,0,0,1,6.49-15.12,67.83,67.83,0,0,1,8.53-12.93,33.57,33.57,0,0,1,12-9l.2,1a26.88,26.88,0,0,0-8.67,9,85,85,0,0,0-6.5,13.24q-2.88,7.36-5.58,15.57t-6,16a89,89,0,0,1-7.76,14.53A40.05,40.05,0,0,1,107,234.18a28.84,28.84,0,0,0,7.56,5.2,23.84,23.84,0,0,0,10.4,2.07,32.24,32.24,0,0,0,13-2.68,42.48,42.48,0,0,0,11.42-7.35,59.37,59.37,0,0,0,9.43-10.79A76.83,76.83,0,0,0,166,207.55a85.39,85.39,0,0,0,4.71-14.29A68.92,68.92,0,0,0,172.62,179a51.19,51.19,0,0,0-1.32-13.07,30.86,30.86,0,0,0-4.77-10.79,23.34,23.34,0,0,0-8.52-7.35,27.34,27.34,0,0,0-12.63-2.69,43.87,43.87,0,0,0-15.88,2.69,39.65,39.65,0,0,0-11.66,6.75,29.43,29.43,0,0,0-7.21,8.93,20.38,20.38,0,0,0-2.48,9.28,12.16,12.16,0,0,0,2.58,7.71q2.59,3.3,8,4.31ZM84.41,212.84a22.23,22.23,0,0,0,8.37-4,21.52,21.52,0,0,0,5.48-6.19,19,19,0,0,0,2.43-7A13.59,13.59,0,0,0,100,189a10.42,10.42,0,0,0-4-5,12.78,12.78,0,0,0-7.3-1.93,25.73,25.73,0,0,0-11.47,2.49,27.7,27.7,0,0,0-8.62,6.49A31.32,31.32,0,0,0,63,200.26a35.17,35.17,0,0,0-2.49,10.56,33.36,33.36,0,0,0,.87,10.55,25.06,25.06,0,0,0,4.26,9.18A22.19,22.19,0,0,0,73.45,237a25.38,25.38,0,0,0,11.67,2.49,28.61,28.61,0,0,0,10.6-1.83,27.83,27.83,0,0,0,8.27-5.07,82.56,82.56,0,0,1-5.23-6.6q-2.39-3.34-4.66-6a27.27,27.27,0,0,0-4.67-4.42,8.57,8.57,0,0,0-5.12-1.72Z"/><path class="cls-1" d="M206.35,203.81h7.11V190c0-7.31-3.55-11.06-10.05-11.06-8.32,0-12.58,5-13,11.56L190,195.6H188.5l.91-17.56a10.51,10.51,0,0,0,2.44.31c2.74,0,6.58-1,11.46-1,11,0,16.94,4.87,16.94,13.8v32c0,2.13,1.12,2.84,2.34,2.84s2.43-1,2.43-2.94v-1.32h.81V223a5.33,5.33,0,0,1-5.37,5.28,5,5,0,0,1-4.77-5l-.51-8.42h-.81c-2.23,10.35-9.13,13.7-15.22,13.7-9.13,0-14.61-4.26-14.61-10.55C184.54,208.79,192.15,203.81,206.35,203.81Zm-6.18,22.43c6.18,0,13.29-5.18,13.29-17.45v-3.45h-6.7c-9.94,0-15.42,4.46-15.42,12.68C191.34,223.09,195.3,226.24,200.17,226.24Z"/><path class="cls-1" d="M229.38,227.05h3c4,0,4.56-1.22,4.56-12.79V161.81a2.29,2.29,0,0,0-2.53-2.53h-4v-.71h4.87c3.45,0,7.61-1.12,7.61-4.57v-.3h.61v60.56c0,11.57.5,12.79,4.56,12.79h3v.81H229.38Z"/><path class="cls-1" d="M281.63,177.33c11.87,0,19.68,6.6,19.68,16.95,0,2.13-1.11,3.55-2.84,3.55H263.41a38.69,38.69,0,0,0-.34,5.27c0,13,7.91,23,20.08,23,6.4,0,13.4-2.33,17.56-8l1.21.91c-4.46,6-11.66,9.54-20.59,9.54-15.22,0-25.47-10.45-25.47-25.87A25.6,25.6,0,0,1,281.63,177.33Zm11.26,18.37a1.36,1.36,0,0,0,1.42-1.52c0-9.44-5.27-15.22-13.08-15.22-9.14,0-15.66,6.71-17.58,17.35Z"/><path class="cls-1" d="M306.28,227.05h3c4.06,0,4.46-1.22,4.46-12.89V183c0-2.1-1.14-3-2.34-3s-2.43,1.13-2.43,3v3.14h-.81V183c0-3.51,2.74-5.28,5.68-5.28,2.64,0,4.87,1.44,4.87,4.46v3.66c0,1.32-.1,6.9-.2,7.71h.71a26.65,26.65,0,0,1,1.42-5.79c2.54-6.59,6.7-10.45,13.39-10.45,8.83,0,11.16,4.87,11.16,11.16v5.08h.41a28.69,28.69,0,0,1,2-7.82c2.74-5.17,6.39-8.42,12.58-8.42,7.3,0,12.58,4,12.58,11.27v25.56c0,11.67.51,12.89,4.56,12.89h2.24v.81H360.77v-.81h.81c4.06,0,4.56-1.22,4.56-12.89V190.22c0-6.9-2.94-10.55-6.79-10.55-7.72,0-12.79,7.71-12.79,18.67v15.82c0,11.67.51,12.89,4.57,12.89h2.13v.81H334.59v-.81h.81c4.06,0,4.57-1.22,4.57-12.89V190.22c0-6.9-2.94-10.55-6.8-10.55-7.71,0-12.88,7.71-12.88,18.67v15.82c0,11.67.5,12.89,4.56,12.89h3v.81H306.28Z"/><path class="cls-1" d="M8.8,265.63a1.45,1.45,0,0,0-1.32.75,1.61,1.61,0,0,0-.22.77v15.13A4.88,4.88,0,0,1,6,285.7a4,4,0,0,1-3.12,1.4v-.22a3.83,3.83,0,0,0,2-1.77,5.53,5.53,0,0,0,.82-2.91V267.15a1.58,1.58,0,0,0-.47-1.08,1.5,1.5,0,0,0-1.07-.44H3.83v-.24H9.12v.24Z"/><path class="cls-1" d="M15.22,268.41a9.28,9.28,0,0,1,8.18,0,7.61,7.61,0,0,1,3,2.69,7.65,7.65,0,0,1,0,7.87,7.53,7.53,0,0,1-3,2.69,8.2,8.2,0,0,1-3.81.95,9.83,9.83,0,0,1-3.45-.55,8.06,8.06,0,0,1-2.6-1.55,7,7,0,0,1-1.73-2.41,8,8,0,0,1-.64-3.34,6.76,6.76,0,0,1,1.09-3.66A7.61,7.61,0,0,1,15.22,268.41ZM14.77,280a6,6,0,0,0,4.53,1.92A6,6,0,0,0,23.83,280a7.54,7.54,0,0,0,0-9.87,6,6,0,0,0-4.53-1.91,6,6,0,0,0-4.53,1.91,7.6,7.6,0,0,0,0,9.87Z"/><path class="cls-1" d="M32,280.55a8.15,8.15,0,0,1,0-11.05,7.79,7.79,0,0,1,5.57-2,11,11,0,0,1,5.81,1.45l.53,3.42h-.22a5,5,0,0,0-2-3.13,7.11,7.11,0,0,0-4.12-1A5.57,5.57,0,0,0,33.26,270a8.28,8.28,0,0,0,0,10,6,6,0,0,0,4.67,1.85,7.07,7.07,0,0,0,5.12-2.1l0-3.21a.82.82,0,0,0-.28-.69,1.25,1.25,0,0,0-.83-.25h-.34v-.24h4.41v.24h-.33c-.73,0-1.09.32-1.09,1v2.89a8.4,8.4,0,0,1-2.79,2.18,8.66,8.66,0,0,1-4.09.93A8.09,8.09,0,0,1,32,280.55Z"/><path class="cls-1" d="M52.83,268a1.56,1.56,0,0,0-1.35.65,1.22,1.22,0,0,0-.21.65v12.94a4,4,0,0,1-1.32,3,4.31,4.31,0,0,1-3.1,1.27v-.24a3.91,3.91,0,0,0,2-1.55,4.22,4.22,0,0,0,.84-2.5v-13a1.18,1.18,0,0,0-.49-.86,1.73,1.73,0,0,0-1.08-.35h-.29l0-.24h5.31V268Z"/><path class="cls-1" d="M69.92,282h.19v.25h-5V282h.2a.83.83,0,0,0,.7-.31,1,1,0,0,0,.24-.59,1.62,1.62,0,0,0-.1-.54l-1.33-3.21h-6.1l-1.33,3.13a1.68,1.68,0,0,0-.12.59,1.05,1.05,0,0,0,.24.61.83.83,0,0,0,.73.32h.19v.25H53.87V282h.19a1.8,1.8,0,0,0,1-.35,2.54,2.54,0,0,0,.86-1.05q5.28-11.28,5.5-11.82a5.48,5.48,0,0,0,.43-1.35h.22l6,13.17A2.09,2.09,0,0,0,69.92,282Zm-10.84-5.38h5.5L61.88,270Z"/><path class="cls-1" d="M68.3,267.65a1.55,1.55,0,0,0,.92-.62,1.47,1.47,0,0,0,.24-.63,1.77,1.77,0,0,0-.51-1.18,1.61,1.61,0,0,1-.41-.61,1,1,0,0,1,0-.67.81.81,0,0,1,.82-.48,1.05,1.05,0,0,1,1,.68,3.47,3.47,0,0,1,.29,1.32,2.27,2.27,0,0,1-.41,1.25,2.32,2.32,0,0,1-2,1.14Z"/><path class="cls-1" d="M73.32,281.48a5.94,5.94,0,0,1-.07-1.18,5.51,5.51,0,0,1,.31-1.81h.29a3.1,3.1,0,0,0,0,.43,2.86,2.86,0,0,0,.85,2.14,3.28,3.28,0,0,0,2.38.83,3.78,3.78,0,0,0,2.48-.74,2.34,2.34,0,0,0,.9-1.9,2.48,2.48,0,0,0-.87-1.94l-4.83-3.72a3.31,3.31,0,0,1-1.16-2.65,3.17,3.17,0,0,1,.52-1.74,3.75,3.75,0,0,1,1.45-1.27,4.83,4.83,0,0,1,2.18-.47,9.81,9.81,0,0,1,2.22.22h.8l0,2.63h-.27a1.87,1.87,0,0,0-.7-1.57,3.13,3.13,0,0,0-2-.55,3.4,3.4,0,0,0-2.15.66,2.08,2.08,0,0,0-.84,1.71,2.28,2.28,0,0,0,.94,1.82l4.87,3.77a3.12,3.12,0,0,1,1.11,2.55,3.61,3.61,0,0,1-1.24,2.78,4.32,4.32,0,0,1-3,1.13,9.53,9.53,0,0,1-2.36-.29A4.18,4.18,0,0,1,73.32,281.48Z"/><path class="cls-1" d="M93,280.18a8.78,8.78,0,0,1,6.35-15.13,10.17,10.17,0,0,1,5.72,1.64l.48,3.4h-.21a5.4,5.4,0,0,0-2.15-3.2,6.63,6.63,0,0,0-3.84-1.12,6.32,6.32,0,0,0-5,2.2,8.59,8.59,0,0,0-1.9,5.81,8.74,8.74,0,0,0,1.87,5.83,6.39,6.39,0,0,0,4.94,2.28,6.93,6.93,0,0,0,4.51-1.47,7.51,7.51,0,0,0,2.37-5.19h.19l-.29,3.79a7.39,7.39,0,0,1-6.78,3.59A8.42,8.42,0,0,1,93,280.18Z"/><path class="cls-1" d="M119.5,282a1.36,1.36,0,0,0,1-.37,1.26,1.26,0,0,0,.44-.9V275.5H112v5.26a1.26,1.26,0,0,0,.44.9,1.36,1.36,0,0,0,1,.37h.29v.25h-4.92V282h.29a1.34,1.34,0,0,0,1-.38,1.36,1.36,0,0,0,.42-.92V269.34a1.31,1.31,0,0,0-.43-.91,1.38,1.38,0,0,0-1-.39h-.29v-.24h4.92V268h-.29a1.41,1.41,0,0,0-1,.37,1.28,1.28,0,0,0-.44.91v5.45h8.91v-5.43a1.08,1.08,0,0,0-.32-.82,1.54,1.54,0,0,0-1.08-.48h-.29v-.24h4.92V268h-.29a1.4,1.4,0,0,0-1,.36,1.22,1.22,0,0,0-.44.89v11.47a1.12,1.12,0,0,0,.31.79,1.64,1.64,0,0,0,1.09.48h.29v.25h-4.92V282Z"/><path class="cls-1" d="M130.33,268.41a9.28,9.28,0,0,1,8.18,0,7.51,7.51,0,0,1,3,2.69,7.59,7.59,0,0,1,0,7.87,7.44,7.44,0,0,1-3,2.69,8.2,8.2,0,0,1-3.81.95,9.83,9.83,0,0,1-3.45-.55,8,8,0,0,1-2.6-1.55,7,7,0,0,1-1.73-2.41,8,8,0,0,1-.64-3.34,6.69,6.69,0,0,1,1.1-3.66A7.51,7.51,0,0,1,130.33,268.41ZM129.88,280a6.3,6.3,0,0,0,9.06,0,7.54,7.54,0,0,0,0-9.87,6.33,6.33,0,0,0-9.06,0,7.6,7.6,0,0,0,0,9.87Z"/><path class="cls-1" d="M147.09,280.56a8.23,8.23,0,0,1,0-11.07,8.1,8.1,0,0,1,5.82-2,12.09,12.09,0,0,1,3,.39,9.39,9.39,0,0,1,2.63,1.06l.53,3.42h-.22q-1-4.14-6-4.14a5.83,5.83,0,0,0-4.54,1.83,7.17,7.17,0,0,0-1.66,5,8.09,8.09,0,0,0,.75,3.6,5.39,5.39,0,0,0,2.17,2.38,6.38,6.38,0,0,0,3.3.85,8.77,8.77,0,0,0,3.3-.57,5.24,5.24,0,0,0,2.34-1.87,6.11,6.11,0,0,0,1-3.23h.21l-.26,3.3a6.31,6.31,0,0,1-2.73,2.28,9.05,9.05,0,0,1-3.91.83A8.16,8.16,0,0,1,147.09,280.56Z"/><path class="cls-1" d="M166.5,268.41a9.28,9.28,0,0,1,8.18,0,7.58,7.58,0,0,1,2.95,2.69,7.59,7.59,0,0,1,0,7.87,7.5,7.5,0,0,1-2.95,2.69,8.21,8.21,0,0,1-3.82.95,9.91,9.91,0,0,1-3.45-.55,8,8,0,0,1-2.59-1.55,7.21,7.21,0,0,1-1.74-2.41,8.19,8.19,0,0,1-.64-3.34,6.77,6.77,0,0,1,1.1-3.66A7.54,7.54,0,0,1,166.5,268.41ZM166.05,280a6.3,6.3,0,0,0,9.06,0,7.57,7.57,0,0,0,0-9.87,6.33,6.33,0,0,0-9.06,0,7.6,7.6,0,0,0,0,9.87Z"/><path class="cls-1" d="M181.21,282a1.36,1.36,0,0,0,1-.37,1.24,1.24,0,0,0,.42-.9V269.34a1.24,1.24,0,0,0-.44-.91,1.43,1.43,0,0,0-1-.39h-.29v-.24h5V268h-.29a1.43,1.43,0,0,0-1,.39,1.19,1.19,0,0,0-.42.91v12.19h3.76a4.12,4.12,0,0,0,1.88-.39,3.11,3.11,0,0,0,1.17-.92,7.22,7.22,0,0,0,.79-1.39H192l-1.33,3.45h-9.79V282Z"/><path class="cls-1" d="M208.41,282h.19v.25h-4.95V282h.2a.81.81,0,0,0,.69-.31,1,1,0,0,0,.25-.59,1.62,1.62,0,0,0-.1-.54l-1.33-3.21h-6.1l-1.33,3.13a1.68,1.68,0,0,0-.12.59,1.05,1.05,0,0,0,.24.61.83.83,0,0,0,.73.32H197v.25h-4.61V282h.19a1.8,1.8,0,0,0,1-.35,2.62,2.62,0,0,0,.86-1.05q5.28-11.28,5.5-11.82a6,6,0,0,0,.43-1.35h.22l6,13.17A2.08,2.08,0,0,0,208.41,282Zm-10.84-5.38h5.5l-2.7-6.61Z"/><path class="cls-1" d="M214.56,268.5v12.26a1.24,1.24,0,0,0,.72,1.11,1.47,1.47,0,0,0,.7.16h.27v.25h-5V282h.29a1.4,1.4,0,0,0,1-.38,1.33,1.33,0,0,0,.43-.92V268.5h-4.37a1.13,1.13,0,0,0-.88.36,1.28,1.28,0,0,0-.32.87v.39h-.27v-2.73a5.63,5.63,0,0,0,1.36.29q.88.09,1.32.09h7.86a7.54,7.54,0,0,0,2.71-.38v2.73h-.27v-.39a1.21,1.21,0,0,0-.34-.87,1.12,1.12,0,0,0-.87-.36Z"/><path class="cls-1" d="M222.4,282a1.38,1.38,0,0,0,1-.37,1.31,1.31,0,0,0,.42-.9V269.29a1.15,1.15,0,0,0-.41-.89,1.45,1.45,0,0,0-1-.36h-.34v-.24h7.05a8.84,8.84,0,0,0,1.73-.15,4.82,4.82,0,0,0,1-.24v2.75l-.27,0v-.36a1.24,1.24,0,0,0-.33-.87,1.15,1.15,0,0,0-.87-.36h-5v6.13h4.12a.93.93,0,0,0,.74-.29,1.08,1.08,0,0,0,.25-.73v-.31h.27v3.38h-.27v-.32a.92.92,0,0,0-.5-.91,1.89,1.89,0,0,0-.41-.1h-4.2v6.13h3.79a4.07,4.07,0,0,0,1.87-.39,3.2,3.2,0,0,0,1.15-.92,7.75,7.75,0,0,0,.81-1.39h.24l-1.32,3.45h-9.8V282Z"/><path class="cls-1" d="M250.84,269.78a1.15,1.15,0,0,0-.69-1.14,1.48,1.48,0,0,0-.51-.09h-5.09v6.13h4.2a.89.89,0,0,0,.72-.29,1.13,1.13,0,0,0,.24-.73v-.31H250v3.38h-.29v-.32a1,1,0,0,0-.38-.84,1.15,1.15,0,0,0-.54-.17h-4.24v5.33a1.3,1.3,0,0,0,.58,1.06,1.48,1.48,0,0,0,.84.24h.34v.25h-5V282h.33a1.4,1.4,0,0,0,1-.37,1.26,1.26,0,0,0,.44-.9V269.29a1.18,1.18,0,0,0-.7-1.08,1.66,1.66,0,0,0-.73-.17h-.33v-.24h7.11a11.05,11.05,0,0,0,1.55-.12,5.06,5.06,0,0,0,1.18-.27v2.75l-.27,0Z"/><path class="cls-1" d="M257.46,268.41a9.26,9.26,0,0,1,8.17,0,7.54,7.54,0,0,1,3,2.69,7.59,7.59,0,0,1,0,7.87,7.46,7.46,0,0,1-3,2.69,8.14,8.14,0,0,1-3.81.95,9.91,9.91,0,0,1-3.45-.55,7.91,7.91,0,0,1-2.59-1.55A7.21,7.21,0,0,1,254,278.1a8,8,0,0,1-.64-3.34,6.77,6.77,0,0,1,1.1-3.66A7.54,7.54,0,0,1,257.46,268.41ZM257,280a6.3,6.3,0,0,0,9.06,0,7.57,7.57,0,0,0,0-9.87,6.33,6.33,0,0,0-9.06,0,7.6,7.6,0,0,0,0,9.87Z"/><path class="cls-1" d="M276.35,268.55h-1.28v12.18a1.3,1.3,0,0,0,.67,1.14,1.5,1.5,0,0,0,.7.16h.32l0,.25h-4.95V282h.34a1.36,1.36,0,0,0,1-.37,1.2,1.2,0,0,0,.39-.9V269.29a1.17,1.17,0,0,0-.39-.89,1.4,1.4,0,0,0-1-.36h-.34v-.24h6.06a5.57,5.57,0,0,1,3.58,1,3.29,3.29,0,0,1,1.32,2.72,4,4,0,0,1-1.06,2.83,4.18,4.18,0,0,1-2.71,1.3,5.32,5.32,0,0,1,1.86,1.88s.26.35.83,1.06,1,1.26,1.38,1.65a11.87,11.87,0,0,0,.86.91A2.9,2.9,0,0,0,286,282v.25h-.75a5.19,5.19,0,0,1-3-.75,7,7,0,0,1-1.5-1.38l-1.22-1.7c-.71-1-1.09-1.54-1.14-1.6a3.47,3.47,0,0,0-2.44-1.62V275a11,11,0,0,0,3.4-.29,2.74,2.74,0,0,0,1.09-.87,3.93,3.93,0,0,0,.6-2.12,2.92,2.92,0,0,0-.87-2.27,3.62,3.62,0,0,0-2.34-.87Z"/><path class="cls-1" d="M298.09,266.13h-1.55v14.38a1.52,1.52,0,0,0,1.55,1.52h.29l0,.25h-5.28V282h.31a1.54,1.54,0,0,0,1.54-1.49V267.15a1.53,1.53,0,0,0-.47-1.08,1.46,1.46,0,0,0-1.07-.44h-.31v-.24h6.51a4.76,4.76,0,0,1,3.45,1.21,4.22,4.22,0,0,1,1.25,3.17,5,5,0,0,1-1.19,3.35,3.68,3.68,0,0,1-2.91,1.41,3.23,3.23,0,0,1,.86.66,9.25,9.25,0,0,1,.88,1,45.38,45.38,0,0,0,2.7,3.65c.42.46.72.78.9.95s.37.33.57.49a3.59,3.59,0,0,0,.63.39,3.5,3.5,0,0,0,1.5.33v.25h-1.33a5,5,0,0,1-1.93-.38,5.15,5.15,0,0,1-1.34-.77,9.3,9.3,0,0,1-.77-.77c-.22-.25-.82-1.08-1.8-2.5s-1.55-2.22-1.71-2.42-.33-.4-.51-.6a2.19,2.19,0,0,0-1.54-.82v-.24a3.43,3.43,0,0,0,.5,0l.78,0c2,0,3.25-.88,3.76-2.51a3,3,0,0,0,.15-.9v-.54a4.31,4.31,0,0,0-.85-2.61,2.83,2.83,0,0,0-2.15-1.06Q299,266.13,298.09,266.13Z"/><path class="cls-1" d="M312.05,268.41a9.28,9.28,0,0,1,8.18,0,7.54,7.54,0,0,1,3,2.69,7.59,7.59,0,0,1,0,7.87,7.46,7.46,0,0,1-3,2.69,8.17,8.17,0,0,1-3.81.95,9.91,9.91,0,0,1-3.45-.55,7.91,7.91,0,0,1-2.59-1.55,7.21,7.21,0,0,1-1.74-2.41,8,8,0,0,1-.64-3.34,6.77,6.77,0,0,1,1.1-3.66A7.58,7.58,0,0,1,312.05,268.41ZM311.61,280a6.3,6.3,0,0,0,9.06,0,7.57,7.57,0,0,0,0-9.87,6.33,6.33,0,0,0-9.06,0,7.6,7.6,0,0,0,0,9.87Z"/><path class="cls-1" d="M340.19,268h-.29a2.4,2.4,0,0,0-1.24.35,3.09,3.09,0,0,0-1,.88l-4.63,7v4.44a1.2,1.2,0,0,0,.41.92,1.36,1.36,0,0,0,1,.38h.29v.25h-4.94V282h.29a1.4,1.4,0,0,0,1-.38,1.23,1.23,0,0,0,.41-.92v-4.46l-4.47-7a2.53,2.53,0,0,0-2.22-1.21h-.29v-.24h5.6V268h-.29a.77.77,0,0,0-.66.29.9.9,0,0,0-.21.49,1.46,1.46,0,0,0,.05.38l3.52,6.25,3.74-6.23a1.1,1.1,0,0,0,.08-.4.9.9,0,0,0-.21-.49.79.79,0,0,0-.69-.29h-.29v-.24h5.05Z"/><path class="cls-1" d="M353.82,282H354v.25h-4.94V282h.19a.83.83,0,0,0,.7-.31,1,1,0,0,0,.24-.59,1.4,1.4,0,0,0-.1-.54l-1.32-3.21h-6.11l-1.32,3.13a1.5,1.5,0,0,0-.13.59,1.08,1.08,0,0,0,.25.61.83.83,0,0,0,.72.32h.19v.25h-4.61V282h.2a1.75,1.75,0,0,0,1-.35,2.54,2.54,0,0,0,.86-1.05q5.28-11.28,5.5-11.82a6.2,6.2,0,0,0,.44-1.35H346l6,13.17A2.1,2.1,0,0,0,353.82,282ZM343,276.65h5.5l-2.7-6.61Z"/><path class="cls-1" d="M355.56,282a1.35,1.35,0,0,0,1-.37,1.28,1.28,0,0,0,.43-.9V269.34a1.29,1.29,0,0,0-.45-.91,1.43,1.43,0,0,0-1-.39h-.29v-.24h5V268h-.29a1.43,1.43,0,0,0-1,.39,1.19,1.19,0,0,0-.42.91v12.19h3.76a4.19,4.19,0,0,0,1.89-.39,3.28,3.28,0,0,0,1.17-.92,7.82,7.82,0,0,0,.78-1.39h.24L365,282.28h-9.79V282Z"/><path class="cls-1" d="M368.22,281.48a6.87,6.87,0,0,1-.07-1.18,5.79,5.79,0,0,1,.31-1.81h.29c0,.14,0,.29,0,.43a2.87,2.87,0,0,0,.86,2.14,3.27,3.27,0,0,0,2.37.83,3.81,3.81,0,0,0,2.49-.74,2.36,2.36,0,0,0,.89-1.9,2.48,2.48,0,0,0-.87-1.94l-4.82-3.72a3.31,3.31,0,0,1-1.16-2.65,3.09,3.09,0,0,1,.52-1.74,3.68,3.68,0,0,1,1.45-1.27,4.77,4.77,0,0,1,2.18-.47,9.93,9.93,0,0,1,2.22.22h.8l0,2.63h-.26a1.9,1.9,0,0,0-.7-1.57,3.17,3.17,0,0,0-2-.55,3.38,3.38,0,0,0-2.15.66,2.06,2.06,0,0,0-.85,1.71,2.31,2.31,0,0,0,.94,1.82l4.88,3.77a3.12,3.12,0,0,1,1.11,2.55,3.65,3.65,0,0,1-1.24,2.78,4.32,4.32,0,0,1-3,1.13,9.61,9.61,0,0,1-2.37-.29A4.24,4.24,0,0,1,368.22,281.48Z"/></g></g></svg>